HIERARCHY
ROOT Hips
{
	OFFSET 0.00000 0.00000 0.00000
	CHANNELS 6 Xposition Yposition Zposition Zrotation Yrotation Xrotation 
	JOINT LHipJoint
	{
		OFFSET 0 0 0
		CHANNELS 3 Zrotation Yrotation Xrotation
		JOINT LeftHip
		{
			OFFSET 1.67711 -1.75950 0.70433
			CHANNELS 3 Zrotation Yrotation Xrotation
			JOINT LeftKnee
			{
				OFFSET 2.44937 -6.72958 0.00000
				CHANNELS 3 Zrotation Yrotation Xrotation
				JOINT LeftAnkle
				{
					OFFSET 2.61292 -7.17894 0.00000
					CHANNELS 3 Zrotation Yrotation Xrotation
					JOINT LeftToe
					{
						OFFSET 0.17811 -0.48914 1.82515
						CHANNELS 3 Zrotation Yrotation Xrotation
						End Site
						{
							OFFSET -0.00112 -0.00292 0.95564
						}
					}
				}
			}
		}
	}
	JOINT RHipJoint
	{
		OFFSET 0 0 0
		CHANNELS 3 Zrotation Yrotation Xrotation
		JOINT RightHip
		{
			OFFSET -1.61866 -1.75949 0.70433
			CHANNELS 3 Zrotation Yrotation Xrotation
			JOINT RightKnee
			{
				OFFSET -2.36243 -6.49072 0.00000
				CHANNELS 3 Zrotation Yrotation Xrotation
				JOINT RightAnkle
				{
					OFFSET -2.64336 -7.26259 0.00000
					CHANNELS 3 Zrotation Yrotation Xrotation
					JOINT RightToe
					{
						OFFSET -0.18169 -0.49935 1.90192
						CHANNELS 3 Zrotation Yrotation Xrotation
						End Site
						{
							OFFSET 0.00039 0.00229 0.99264
						}
					}
				}
			}
		}
	}
	JOINT lowerback
	{
		OFFSET 0 0 0
		CHANNELS 3 Zrotation Yrotation Xrotation
		JOINT Chest
		{
			OFFSET -0.01926 2.19655 -0.12599
			CHANNELS 3 Zrotation Yrotation Xrotation
			JOINT Chest2
			{
				OFFSET 0.01663 2.20532 -0.00079
				CHANNELS 3 Zrotation Yrotation Xrotation
				JOINT lowerneck
				{
					OFFSET 0 0 0
					CHANNELS 3 Zrotation Yrotation Xrotation
					JOINT Neck
					{
						OFFSET 0.10604 1.75174 0.14226
						CHANNELS 3 Zrotation Yrotation Xrotation
						JOINT Head
						{
							OFFSET -0.09898 1.68516 -0.48414
							CHANNELS 3 Zrotation Yrotation Xrotation
							End Site
							{
								OFFSET -0.02896 1.78316 -0.18415
							}
						}
					}
				}
				JOINT LeftCollar
				{
					OFFSET 0 0 0
					CHANNELS 3 Zrotation Yrotation Xrotation
					JOINT LeftShoulder
					{
						OFFSET 3.30655 1.16959 -0.30867
CHANNELS 3 Zrotation Xrotation Yrotation
						JOINT LeftElbow
						{
OFFSET 0 -5.352890 -0.000000
CHANNELS 3 Zrotation Xrotation Yrotation
							JOINT LeftWrist
							{
OFFSET 0 -3.277270 -0.000000
CHANNELS 3 Zrotation Xrotation Yrotation
								JOINT lhand
								{
									OFFSET 0 0 0
CHANNELS 3 Zrotation Xrotation Yrotation
									JOINT LFingers
									{
OFFSET 0 -0.544430 0.000090
CHANNELS 3 Zrotation Xrotation Yrotation
										End Site
										{
OFFSET 0 -0.438910 -0.000000
										}
									}
								}
								JOINT LThumb
								{
OFFSET 0 0.000000 0.000000
CHANNELS 3 Zrotation Xrotation Yrotation
									End Site
									{
OFFSET 0 -0.445640 0.445700
									}
								}
							}
						}
					}
				}
				JOINT RightCollar
				{
					OFFSET 0 0 0
					CHANNELS 3 Zrotation Yrotation Xrotation
					JOINT RightShoulder
					{
						OFFSET -3.27172 0.97864 -0.36131
CHANNELS 3 Zrotation Xrotation Yrotation
						JOINT RightElbow
						{
OFFSET 0 -5.520760 -0.005900
CHANNELS 3 Zrotation Xrotation Yrotation
							JOINT RightWrist
							{
OFFSET 0 -3.323640 -0.000000
CHANNELS 3 Zrotation Xrotation Yrotation
								JOINT rhand
								{
									OFFSET 0 0 0
CHANNELS 3 Zrotation Xrotation Yrotation
									JOINT RFingers
									{
OFFSET 0 -0.732230 -0.000000
CHANNELS 3 Zrotation Xrotation Yrotation
										End Site
										{
OFFSET 0 -0.590350 -0.000000
										}
									}
								}
								JOINT RThumb
								{
OFFSET 0 0.000000 0.000000
CHANNELS 3 Zrotation Xrotation Yrotation
									End Site
									{
OFFSET 0 -0.599360 0.599360
									}
								}
							}
						}
					}
				}
			}
		}
	}
}
MOTION
Frames: 6
Frame Time: 0.008333333333333333
15.375121 19.367409 5.155465 3.047383 12.892471 2.832373 0.000000 0.000000 0.000000 -13.563071 -9.881014 -16.298127 21.992916 19.903921 95.836036 -1.904919 -24.342354 16.176716 0.444525 4.277114 11.857757 0.000000 0.000000 0.000000 17.559540 5.283778 -31.392406 -5.085635 -13.474989 41.182240 1.184600 -21.721300 3.544000 -1.144600 6.793500 -19.105100 -2.442459 0.529066 6.322869 -1.194772 0.533627 1.881490 0.101496 0.272131 -1.616330 10.130394 8.061393 -19.973603 -14.235611 10.972657 14.157359 -4.968513 4.333152 9.138469 0.000000 0.000000 0.000000 5.493600 10.507581 -22.473294 50.128588 -53.036052 26.279870 23.326968 -3.740560 -26.846477 0.000000 0.000000 0.000000 -7.125000 0.000000 0.000000 -7.727429 58.677512 2.592122 0.000000 0.000000 0.000000 -3.260207 20.729819 12.107878 -13.316485 -21.749179 -2.569411 -10.212067 0.690324 -19.854973 0.000000 0.000000 0.000000 7.125000 0.000000 0.000000 11.680834 10.155086 9.646227
15.365763 19.315027 5.202196 2.900750 12.547613 3.030720 0.000000 0.000000 0.000000 -13.359012 -9.957643 -16.618982 22.197947 19.883564 96.438307 -1.798758 -23.966261 16.864549 0.424776 4.182741 11.591472 0.000000 0.000000 0.000000 17.594421 5.970334 -32.129217 -5.391906 -13.810367 42.486320 1.184600 -21.721300 3.544000 -1.144600 6.793500 -19.105100 -2.095778 0.537999 6.511006 -1.139716 0.563282 1.935269 -0.039911 0.286594 -1.663790 9.850983 8.220180 -20.276410 -13.973033 11.190571 14.144476 -4.786938 4.431657 9.181006 0.000000 0.000000 0.000000 5.166000 10.004544 -22.059282 48.567763 -52.396955 25.036011 23.973903 -3.444681 -26.899831 0.000000 0.000000 0.000000 -7.125000 0.000000 0.000000 -7.037288 58.881935 2.394565 0.000000 0.000000 0.000000 -3.365822 20.166257 12.539634 -13.380656 -21.842336 -2.593232 -10.007400 1.181572 -19.746320 0.000000 0.000000 0.000000 7.125000 0.000000 0.000000 11.811303 10.281058 9.728082
15.357547 19.258959 5.241917 2.810710 12.319419 3.316811 0.000000 0.000000 0.000000 -13.229302 -10.159294 -17.023636 22.416996 19.858534 97.082996 -1.691350 -23.570906 17.435250 0.399626 4.057320 11.238169 0.000000 0.000000 0.000000 17.577486 6.516084 -32.887419 -5.693088 -14.119630 43.728408 1.184600 -21.721300 3.544000 -1.144600 6.793500 -19.105100 -1.792346 0.522945 6.707763 -1.111399 0.556749 1.865636 -0.182719 0.283923 -1.842555 9.626504 8.334575 -20.206017 -13.742696 11.358278 14.048625 -4.641396 4.525437 9.126765 0.000000 0.000000 0.000000 4.943174 9.808094 -21.859439 47.271366 -51.824732 24.014162 24.448413 -3.401704 -26.778891 0.000000 0.000000 0.000000 -7.125000 0.000000 0.000000 -6.453634 58.866737 2.193738 0.000000 0.000000 0.000000 -3.463233 19.846355 13.178499 -13.539529 -22.072198 -2.652877 -9.776047 1.406627 -19.635850 0.000000 0.000000 0.000000 7.125000 0.000000 0.000000 11.959321 10.410612 9.823228
15.349652 19.204330 5.281903 2.791228 12.102884 3.615229 0.000000 0.000000 0.000000 -13.198109 -10.379574 -17.428778 22.633753 19.832555 97.721377 -1.580964 -23.143809 17.936165 0.366731 3.885817 10.756050 0.000000 0.000000 0.000000 17.490502 7.018565 -33.626518 -5.990548 -14.417451 44.940481 1.184600 -21.721300 3.544000 -1.144600 6.793500 -19.105100 -1.576751 0.509564 6.885611 -1.093767 0.547322 1.801107 -0.286854 0.279868 -2.006115 9.470701 8.444285 -20.060592 -13.587803 11.514930 13.897603 -4.536556 4.615380 9.048609 0.000000 0.000000 0.000000 4.726760 9.625905 -21.701957 46.000899 -51.244517 23.018156 24.807629 -3.528183 -26.358035 0.000000 0.000000 0.000000 -7.125000 0.000000 0.000000 -5.875503 58.510709 1.952259 0.000000 0.000000 0.000000 -3.576236 19.542031 13.898195 -13.739688 -22.360871 -2.728626 -9.552669 1.514048 -19.495292 0.000000 0.000000 0.000000 7.125000 0.000000 0.000000 12.102539 10.568906 9.906530
15.342238 19.157539 5.327418 3.002579 11.855194 3.903694 0.000000 0.000000 0.000000 -13.492226 -10.589710 -17.781658 22.832768 19.806000 98.308456 -1.460096 -22.608869 18.248269 0.307968 3.559736 9.841978 0.000000 0.000000 0.000000 17.171531 7.448012 -34.279409 -6.277191 -14.688780 46.078847 1.184600 -21.721300 3.544000 -1.144600 6.793500 -19.105100 -1.666080 0.518010 6.986243 -1.099358 0.550299 1.835623 -0.243526 0.281630 -2.027263 9.539672 8.564910 -19.871846 -13.697975 11.662110 13.591089 -4.562686 4.693831 8.942326 0.000000 0.000000 0.000000 4.466977 9.299763 -21.566687 44.657928 -50.590836 21.976715 24.841294 -4.133493 -24.913216 0.000000 0.000000 0.000000 -7.125000 0.000000 0.000000 -5.249532 57.004940 1.558847 0.000000 0.000000 0.000000 -3.753617 19.139382 14.790451 -14.035142 -22.784119 -2.842262 -9.376746 1.347605 -19.241889 0.000000 0.000000 0.000000 7.125000 0.000000 0.000000 12.216236 10.833794 9.936367
15.333558 19.121118 5.378341 3.282241 11.590735 4.177478 0.000000 0.000000 0.000000 -13.873374 -10.799264 -18.178070 23.018298 19.779718 98.856281 -1.343712 -22.049561 18.443602 0.276003 3.378833 9.335272 0.000000 0.000000 0.000000 16.782435 7.872188 -34.869431 -6.539569 -14.929342 47.106499 1.184600 -21.721300 3.544000 -1.144600 6.793500 -19.105100 -1.898669 0.520023 7.056450 -1.081574 0.536576 1.905834 -0.093831 0.274905 -1.995842 9.712889 8.666300 -19.620609 -13.993469 11.777325 13.134436 -4.675402 4.752810 8.792476 0.000000 0.000000 0.000000 4.172867 8.953361 -21.444252 43.329398 -49.912686 20.955637 25.292968 -3.716198 -25.265792 0.000000 0.000000 0.000000 -7.125000 0.000000 0.000000 -4.889890 57.481100 1.491793 0.000000 0.000000 0.000000 -3.990446 18.656616 15.634828 -14.342711 -23.221400 -2.962606 -9.245587 1.214427 -19.081952 0.000000 0.000000 0.000000 7.125000 0.000000 0.000000 12.301150 11.002547 9.965656
